<svg width="63" height="68" viewBox="0 0 63 68" fill="none" xmlns="http://www.w3.org/2000/svg">
<path fill-rule="evenodd" clip-rule="evenodd" d="M61.8201 0.789318C62.1234 0.976188 62.3737 1.23714 62.5474 1.54742C62.7211 1.8577 62.8123 2.20704 62.8125 2.5623V65.1383C62.8125 65.6915 62.5919 66.222 62.1993 66.6132C61.8066 67.0044 61.274 67.2241 60.7188 67.2241H48.1562C47.601 67.2241 47.0684 67.0044 46.6757 66.6132C46.2831 66.222 46.0625 65.6915 46.0625 65.1383V58.8807H41.875V65.1383C41.875 65.6915 41.6544 66.222 41.2618 66.6132C40.8691 67.0044 40.3365 67.2241 39.7812 67.2241H2.09375C1.53845 67.2241 1.0059 67.0044 0.613245 66.6132C0.220591 66.222 0 65.6915 0 65.1383V42.1937C0.000333521 41.7561 0.138808 41.3297 0.395823 40.9748C0.652839 40.62 1.01538 40.3546 1.43213 40.2163L25.125 32.3485V19.2492C25.125 18.8622 25.2331 18.4828 25.4372 18.1534C25.6413 17.8241 25.9334 17.5579 26.2808 17.3845L59.7808 0.69754C60.1003 0.538204 60.4554 0.462989 60.8124 0.479054C61.1694 0.495119 61.5163 0.601929 61.8201 0.789318ZM25.125 36.7455L4.1875 43.6956V63.0524H25.125V36.7455ZM29.3125 63.0524H37.6875V56.7948C37.6875 56.2416 37.9081 55.711 38.3007 55.3199C38.6934 54.9287 39.226 54.7089 39.7812 54.7089H48.1562C48.7115 54.7089 49.2441 54.9287 49.6368 55.3199C50.0294 55.711 50.25 56.2416 50.25 56.7948V63.0524H58.625V5.93723L29.3125 20.5383V63.0524Z" fill="#E56717"/>
<path d="M8.375 46.3658H12.5625V50.5375H8.375V46.3658ZM16.75 46.3658H20.9375V50.5375H16.75V46.3658ZM8.375 54.7092H12.5625V58.881H8.375V54.7092ZM16.75 54.7092H20.9375V58.881H16.75V54.7092ZM33.5 38.0223H37.6875V42.1941H33.5V38.0223ZM41.875 38.0223H46.0625V42.1941H41.875V38.0223ZM33.5 46.3658H37.6875V50.5375H33.5V46.3658ZM41.875 46.3658H46.0625V50.5375H41.875V46.3658ZM50.25 38.0223H54.4375V42.1941H50.25V38.0223ZM50.25 46.3658H54.4375V50.5375H50.25V46.3658ZM33.5 29.6789H37.6875V33.8506H33.5V29.6789ZM41.875 29.6789H46.0625V33.8506H41.875V29.6789ZM50.25 29.6789H54.4375V33.8506H50.25V29.6789ZM33.5 21.3354H37.6875V25.5071H33.5V21.3354ZM41.875 21.3354H46.0625V25.5071H41.875V21.3354ZM50.25 21.3354H54.4375V25.5071H50.25V21.3354ZM50.25 12.9919H54.4375V17.1637H50.25V12.9919Z" fill="#E56717"/>
</svg>
