<svg width="85" height="85" viewBox="0 0 85 85" fill="none" xmlns="http://www.w3.org/2000/svg">
<path fill-rule="evenodd" clip-rule="evenodd" d="M38.8393 21.8395L43.3726 17.3061C47.022 13.6511 53.431 11.1181 59.7946 10.2058C62.616 9.76626 65.4853 9.7281 68.3173 10.0925C70.8276 10.4665 72.3633 11.2031 73.0773 11.9228C73.797 12.6368 74.5336 14.1725 74.9076 16.6828C75.2703 19.1025 75.242 22.0661 74.7943 25.2055C73.8876 31.5691 71.349 37.9781 67.694 41.6275L42.5 66.8271L36.006 60.3331C35.7429 60.0697 35.4305 59.8607 35.0867 59.7179C34.7429 59.5752 34.3743 59.5017 34.002 59.5014C33.6297 59.5011 33.261 59.5742 32.917 59.7164C32.5729 59.8586 32.2602 60.0672 31.9968 60.3303C31.4648 60.8616 31.1656 61.5824 31.1651 62.3343C31.1648 62.7066 31.2379 63.0753 31.3801 63.4193C31.5223 63.7634 31.7309 64.076 31.994 64.3395L40.494 72.8395C40.7572 73.1033 41.0698 73.3127 41.4141 73.4555C41.7583 73.5983 42.1273 73.6719 42.5 73.6719C42.8727 73.6719 43.2417 73.5983 43.5859 73.4555C43.9301 73.3127 44.2428 73.1033 44.506 72.8395L47.6056 69.7341L54.2356 80.7898C54.4567 81.16 54.7594 81.4748 55.1206 81.7103C55.4818 81.9459 55.8919 82.0958 56.3198 82.1488C56.7477 82.2019 57.1821 82.1565 57.5898 82.0162C57.9976 81.876 58.3679 81.6445 58.6726 81.3395L70.006 70.0061C70.3172 69.6944 70.5514 69.3145 70.6901 68.8964C70.8288 68.4783 70.8682 68.0337 70.805 67.5978L68.17 49.1698L71.706 45.6395C76.551 40.7888 79.4013 33.0311 80.4043 26.0045C80.9143 22.4515 80.971 18.9211 80.512 15.8385C80.0586 12.8465 79.0613 9.88847 77.0893 7.9108C75.1116 5.9388 72.1536 4.9358 69.156 4.48813C65.781 4.04383 62.3599 4.08199 58.9956 4.60147C51.9633 5.59313 44.2 8.44347 39.3606 13.2885L35.8303 16.8245L17.4023 14.1895C16.9664 14.1263 16.5218 14.1656 16.1037 14.3043C15.6856 14.443 15.3057 14.6773 14.994 14.9885L3.66065 26.3218C3.3556 26.6265 3.12413 26.9969 2.98387 27.4046C2.84361 27.8123 2.79826 28.2467 2.85127 28.6746C2.90428 29.1025 3.05425 29.5127 3.28977 29.8739C3.52528 30.235 3.84013 30.5377 4.21031 30.7588L15.2603 37.3888L12.1606 40.4885C11.8968 40.7517 11.6874 41.0643 11.5446 41.4085C11.4018 41.7528 11.3282 42.1218 11.3282 42.4945C11.3282 42.8671 11.4018 43.2362 11.5446 43.5804C11.6874 43.9246 11.8968 44.2373 12.1606 44.5005L20.6606 53.0005C20.9241 53.2639 21.2368 53.4729 21.581 53.6154C21.9252 53.758 22.2941 53.8314 22.6666 53.8314C23.0392 53.8314 23.4081 53.758 23.7523 53.6154C24.0965 53.4729 24.4092 53.2639 24.6726 53.0005C24.9361 52.737 25.145 52.4243 25.2876 52.0801C25.4302 51.7359 25.5036 51.367 25.5036 50.9945C25.5036 50.6219 25.4302 50.253 25.2876 49.9088C25.145 49.5646 24.9361 49.2519 24.6726 48.9885L18.173 42.5001L21.8393 38.8395L38.8393 21.8395ZM57.2276 74.7661L51.731 65.6031L63.1606 54.1791L64.9966 66.9971L57.2333 74.7605L57.2276 74.7661ZM19.397 33.2635L30.821 21.8395L18.003 20.0035L10.2396 27.7668L19.397 33.2635ZM13.3336 58.6728C13.5971 58.4097 13.8061 58.0974 13.9488 57.7535C14.0915 57.4097 14.1651 57.0411 14.1654 56.6688C14.1657 56.2965 14.0926 55.9278 13.9504 55.5838C13.8081 55.2397 13.5995 54.9271 13.3365 54.6636C13.0734 54.4002 12.761 54.1912 12.4172 54.0485C12.0734 53.9057 11.7048 53.8321 11.3325 53.8319C10.9602 53.8316 10.5915 53.9047 10.2475 54.0469C9.90341 54.1891 9.59074 54.3977 9.32731 54.6608L3.66065 60.3275C3.12937 60.8595 2.83121 61.5808 2.83174 62.3326C2.83227 63.0845 3.13146 63.8054 3.66348 64.3366C4.1955 64.8679 4.91679 65.1661 5.66865 65.1655C6.42051 65.165 7.14137 64.8658 7.67265 64.3338L13.3393 58.6671L13.3336 58.6728ZM21.8336 67.1728C22.1043 66.9114 22.3201 66.5988 22.4686 66.2531C22.6171 65.9074 22.6953 65.5356 22.6985 65.1594C22.7018 64.7832 22.6301 64.4101 22.4876 64.0619C22.3452 63.7137 22.1348 63.3974 21.8688 63.1313C21.6027 62.8653 21.2864 62.6549 20.9382 62.5125C20.59 62.37 20.2169 62.2983 19.8407 62.3016C19.4645 62.3049 19.0927 62.383 18.747 62.5315C18.4013 62.68 18.0887 62.8959 17.8273 63.1665L6.49398 74.4998C5.96271 75.0318 5.66454 75.7531 5.66507 76.505C5.6656 77.2568 5.96479 77.9777 6.49681 78.509C7.02884 79.0402 7.75012 79.3384 8.50198 79.3379C9.25385 79.3373 9.97471 79.0382 10.506 78.5061L21.8393 67.1728H21.8336ZM30.3336 75.6728C30.5971 75.4097 30.8061 75.0974 30.9488 74.7535C31.0915 74.4097 31.1651 74.0411 31.1654 73.6688C31.1657 73.2965 31.0926 72.9278 30.9504 72.5838C30.8081 72.2397 30.5995 71.9271 30.3365 71.6636C30.0734 71.4002 29.761 71.1912 29.4172 71.0484C29.0734 70.9057 28.7048 70.8321 28.3325 70.8319C27.9602 70.8316 27.5915 70.9047 27.2475 71.0469C26.9034 71.1891 26.5907 71.3977 26.3273 71.6608L20.6606 77.3275C20.1294 77.8595 19.8312 78.5808 19.8317 79.3326C19.8323 80.0845 20.1315 80.8054 20.6635 81.3366C21.1955 81.8679 21.9168 82.1661 22.6686 82.1655C23.4205 82.165 24.1414 81.8658 24.6726 81.3338L30.3393 75.6671L30.3336 75.6728ZM53.8333 38.2388C55.7104 38.2388 57.5107 37.4931 58.838 36.1658C60.1653 34.8385 60.911 33.0382 60.911 31.1611C60.911 29.284 60.1653 27.4838 58.838 26.1565C57.5107 24.8291 55.7104 24.0835 53.8333 24.0835C51.9562 24.0835 50.156 24.8291 48.8286 26.1565C47.5013 27.4838 46.7556 29.284 46.7556 31.1611C46.7556 33.0382 47.5013 34.8385 48.8286 36.1658C50.156 37.4931 51.9562 38.2388 53.8333 38.2388Z" fill="#E56717"/>
</svg>
