<svg width="89" height="89" viewBox="0 0 89 89" fill="none" xmlns="http://www.w3.org/2000/svg">
<path d="M70.4583 22.25H59.3333V18.5417C59.3333 16.5746 58.5519 14.6882 57.161 13.2973C55.7702 11.9064 53.8837 11.125 51.9167 11.125H37.0833C35.1163 11.125 33.2299 11.9064 31.839 13.2973C30.4481 14.6882 29.6667 16.5746 29.6667 18.5417V22.25H18.5417C15.5911 22.25 12.7614 23.4221 10.6751 25.5084C8.58876 27.5948 7.41666 30.4245 7.41666 33.375V66.75C7.41666 69.7005 8.58876 72.5302 10.6751 74.6166C12.7614 76.7029 15.5911 77.875 18.5417 77.875H70.4583C73.4089 77.875 76.2386 76.7029 78.3249 74.6166C80.4112 72.5302 81.5833 69.7005 81.5833 66.75V33.375C81.5833 30.4245 80.4112 27.5948 78.3249 25.5084C76.2386 23.4221 73.4089 22.25 70.4583 22.25ZM37.0833 18.5417H51.9167V22.25H37.0833V18.5417ZM74.1667 66.75C74.1667 67.7335 73.776 68.6767 73.0805 69.3722C72.3851 70.0676 71.4419 70.4583 70.4583 70.4583H18.5417C17.5582 70.4583 16.6149 70.0676 15.9195 69.3722C15.224 68.6767 14.8333 67.7335 14.8333 66.75V48.2083H29.6667V51.9167C29.6667 52.9002 30.0574 53.8434 30.7528 54.5389C31.4483 55.2343 32.3915 55.625 33.375 55.625C34.3585 55.625 35.3017 55.2343 35.9972 54.5389C36.6926 53.8434 37.0833 52.9002 37.0833 51.9167V48.2083H51.9167V51.9167C51.9167 52.9002 52.3074 53.8434 53.0028 54.5389C53.6983 55.2343 54.6415 55.625 55.625 55.625C56.6085 55.625 57.5517 55.2343 58.2472 54.5389C58.9426 53.8434 59.3333 52.9002 59.3333 51.9167V48.2083H74.1667V66.75ZM74.1667 40.7917H14.8333V33.375C14.8333 32.3915 15.224 31.4483 15.9195 30.7528C16.6149 30.0574 17.5582 29.6667 18.5417 29.6667H70.4583C71.4419 29.6667 72.3851 30.0574 73.0805 30.7528C73.776 31.4483 74.1667 32.3915 74.1667 33.375V40.7917Z" fill="#E56717"/>
</svg>
